<svg width="64" height="64" viewBox="0 0 64 64" fill="none" xmlns="http://www.w3.org/2000/svg">
<path d="M45.5986 3.5498C47.2448 1.9251 51.9504 4.02357 56.1094 8.2373C60.2684 12.4511 62.3053 17.1848 60.6592 18.8096C59.8236 19.6338 58.2008 19.4975 56.2608 18.6143C60.2926 24.4164 61.7407 29.8315 59.4424 32.1006C57.6519 33.8678 53.9834 33.335 49.7315 31.0732C58.3808 42.5359 61.8673 53.4488 57.5264 57.7334C53.1202 62.0823 41.9911 58.2782 30.459 49.1904C33.1321 53.9066 33.8478 58.0387 31.9151 59.9463C29.6582 62.1729 24.4187 60.7488 18.7891 56.8105C19.345 58.4034 19.329 59.7054 18.6104 60.415C16.9642 62.0398 12.2577 59.9414 8.09865 55.7275C3.93974 51.5137 1.90272 46.78 3.54885 45.1553C4.27734 44.4364 5.60544 44.4469 7.21974 45.0469C3.42673 39.4185 2.11219 34.2269 4.3506 32.0176C6.25468 30.1383 10.2824 30.8587 14.877 33.4951C5.70741 21.6955 1.90942 10.3011 6.36818 5.90039C10.6944 1.63105 21.5001 5.22068 32.8057 13.9531C30.5746 9.64756 30.0785 5.94694 31.877 4.17187C34.2212 1.8587 39.7849 3.48438 45.6602 7.77637C44.8713 5.90241 44.7882 4.34974 45.5986 3.5498Z" fill="#1F1F1F"/>
</svg>
